<?xml version="1.0" encoding="UTF-8" standalone="no"?>
<!-- Created with Inkscape (http://www.inkscape.org/) -->

<svg
   xmlns:dc="http://purl.org/dc/elements/1.1/"
   xmlns:cc="http://creativecommons.org/ns#"
   xmlns:rdf="http://www.w3.org/1999/02/22-rdf-syntax-ns#"
   xmlns:svg="http://www.w3.org/2000/svg"
   xmlns="http://www.w3.org/2000/svg"
   xmlns:xlink="http://www.w3.org/1999/xlink"
   xmlns:sodipodi="http://sodipodi.sourceforge.net/DTD/sodipodi-0.dtd"
   xmlns:inkscape="http://www.inkscape.org/namespaces/inkscape"
   height="375"
   id="svg1"
   inkscape:version="0.47 r22583"
   sodipodi:docname="x11clone.svg"
   sodipodi:version="0.32"
   width="375"
   version="1.1">
  <metadata
     id="metadata3">
    <rdf:RDF>
      <cc:Work
         rdf:about="">
        <dc:title>Clipart by Nicu Buculei - jigsaw_red_10</dc:title>
        <dc:description />
        <dc:subject>
          <rdf:Bag>
            <rdf:li />
            <rdf:li>jigsaw</rdf:li>
            <rdf:li>shape</rdf:li>
          </rdf:Bag>
        </dc:subject>
        <dc:publisher>
          <cc:Agent
             rdf:about="http://www.openclipart.org">
            <dc:title>Nicu Buculei</dc:title>
          </cc:Agent>
        </dc:publisher>
        <dc:creator>
          <cc:Agent>
            <dc:title>Nicu Buculei</dc:title>
          </cc:Agent>
        </dc:creator>
        <dc:rights>
          <cc:Agent>
            <dc:title>Nicu Buculei</dc:title>
          </cc:Agent>
        </dc:rights>
        <dc:date />
        <dc:format>image/svg+xml</dc:format>
        <dc:type
           rdf:resource="http://purl.org/dc/dcmitype/StillImage" />
        <cc:license
           rdf:resource="http://web.resource.org/cc/PublicDomain" />
        <dc:language>en</dc:language>
      </cc:Work>
      <cc:License
         rdf:about="http://web.resource.org/cc/PublicDomain">
        <cc:permits
           rdf:resource="http://web.resource.org/cc/Reproduction" />
        <cc:permits
           rdf:resource="http://web.resource.org/cc/Distribution" />
        <cc:permits
           rdf:resource="http://web.resource.org/cc/DerivativeWorks" />
      </cc:License>
    </rdf:RDF>
  </metadata>
  <defs
     id="defs3">
    <inkscape:perspective
       sodipodi:type="inkscape:persp3d"
       inkscape:vp_x="0 : 250 : 1"
       inkscape:vp_y="0 : 1000 : 0"
       inkscape:vp_z="500 : 250 : 1"
       inkscape:persp3d-origin="250 : 166.66667 : 1"
       id="perspective22" />
    <linearGradient
       id="linearGradient1085">
      <stop
         id="stop1086"
         offset="0"
         style="stop-color:#00009f;stop-opacity:0.94117647;" />
      <stop
         id="stop1087"
         offset="1"
         style="stop-color:#0000ff;stop-opacity:1;" />
    </linearGradient>
    <radialGradient
       cx="1.7995006"
       cy="-0.033503532"
       fx="1.7995006"
       fy="-0.033503532"
       id="radialGradient1088"
       r="2.1367373"
       xlink:href="#linearGradient1085" />
    <radialGradient
       cx="-1.8538072"
       cy="-0.028270273"
       fx="-1.8538072"
       fy="-0.028270273"
       id="radialGradient1089"
       r="2.1367373"
       xlink:href="#linearGradient1085" />
    <radialGradient
       cx="-0.34090281"
       cy="-1.884181"
       fx="-0.34090281"
       fy="-1.884181"
       gradientTransform="scale(0.751916,1.329935)"
       id="radialGradient1090"
       r="2.1367373"
       xlink:href="#linearGradient1085" />
    <radialGradient
       cx="-0.33888963"
       cy="0.86286521"
       fx="-0.33888963"
       fy="0.86286521"
       gradientTransform="scale(0.751916,1.329935)"
       id="radialGradient1091"
       r="2.1367373"
       xlink:href="#linearGradient1085" />
    <radialGradient
       cx="0.86051458"
       cy="-0.022911092"
       fx="0.86051458"
       fy="-0.022911092"
       id="radialGradient1092"
       r="2.1367371"
       xlink:href="#linearGradient1085" />
    <radialGradient
       cx="-2.7927938"
       cy="-0.031800985"
       fx="-2.7927938"
       fy="-0.031800985"
       id="radialGradient1093"
       r="2.1367373"
       xlink:href="#linearGradient1085" />
    <radialGradient
       cx="-0.34090281"
       cy="-1.1746118"
       fx="-0.34090281"
       fy="-1.1746118"
       gradientTransform="scale(0.751916,1.329935)"
       id="radialGradient1094"
       r="2.1367373"
       xlink:href="#linearGradient1085" />
    <radialGradient
       cx="-0.33623907"
       cy="1.5691054"
       fx="-0.33623907"
       fy="1.5691054"
       gradientTransform="scale(0.751916,1.329935)"
       id="radialGradient1095"
       r="2.1367371"
       xlink:href="#linearGradient1085" />
    <radialGradient
       cx="113.17872"
       cy="206.10701"
       fx="113.17872"
       fy="206.10701"
       gradientTransform="matrix(1.1164785,0,0,0.89567334,0,-39)"
       id="radialGradient1096"
       r="217.09674"
       xlink:href="#linearGradient1085"
       gradientUnits="userSpaceOnUse" />
  </defs>
  <sodipodi:namedview
     bordercolor="#666666"
     borderopacity="1.0"
     id="base"
     inkscape:cx="290.35603"
     inkscape:cy="224.26788"
     inkscape:pageopacity="0.0"
     inkscape:pageshadow="2"
     inkscape:window-height="892"
     inkscape:window-width="1016"
     inkscape:window-x="146"
     inkscape:window-y="54"
     inkscape:zoom="1"
     pagecolor="#ffffff"
     showgrid="true"
     inkscape:window-maximized="0"
     inkscape:current-layer="g842" />
  <g
     id="g842"
     transform="matrix(-1,0,0,1,404.64834,-33.624992)">
    <path
       d="m 125.33584,89.875 0,99.15625 c -0.2722,3.12958 -2.53487,21.21757 -20.4375,17.75 -19.51458,-3.77979 -6.49976,-35.88552 -34.6875,-22.65625 -9.20695,7.67594 -14.27484,20.97934 -15.96875,34.09375 -0.02646,0.20482 -0.06894,0.42031 -0.09375,0.625 -0.9667,4.61204 -1.45656,9.88905 -1.25,15.5 0.55954,15.19944 5.6533,32.24863 16.5625,41.34375 28.18773,13.22926 15.17291,-18.90771 34.6875,-22.6875 19.51458,-3.7798 20.59375,18.90625 20.59375,18.90625 l 0.59375,97.71875 c 0,0 98.09376,-0.78126 98.09375,-0.78125 0,0 22.68603,-1.07918 18.90625,-20.59375 -3.77979,-19.51459 -35.88551,-6.49978 -22.65625,-34.6875 9.09512,-10.9092 26.11306,-16.00297 41.3125,-16.5625 5.61095,-0.20656 10.88796,0.28329 15.5,1.25 0.20469,0.0248 0.42018,0.0673 0.625,0.0937 13.11441,1.69391 26.44906,6.76179 34.125,15.96875 13.22927,28.18774 -18.90771,15.1729 -22.6875,34.6875 -3.77979,19.51458 18.90625,20.59374 18.90625,20.59375 l 97.1875,0.0312 c 0,0 -0.62501,-98.25001 -0.625,-98.25 0,0 -1.07918,-22.68605 -20.59375,-18.90625 -19.51459,3.77979 -6.49978,35.91675 -34.6875,22.6875 -10.9092,-9.09512 -16.00297,-26.14431 -16.5625,-41.34375 -0.20656,-5.61095 0.28329,-10.88795 1.25,-15.5 0.0248,-0.20469 0.0673,-0.42019 0.0937,-0.625 1.69391,-13.11441 6.76179,-26.41782 15.96875,-34.09375 5.2852,-2.48049 9.12583,-3.37911 12,-3.15625 12.45474,0.96571 6.83189,22.74142 22.6875,25.8125 18.2079,3.5267 20.26129,-15.33972 20.46875,-17.96875 l 0,-98.40625 c 0,0 -97.34375,0.71875 -97.34375,0.71875 0,0 -22.68605,1.07917 -18.90625,20.59375 3.77979,19.51459 35.91676,6.49977 22.6875,34.6875 -9.09512,10.9092 -26.14431,16.00296 -41.34375,16.5625 -5.61095,0.20656 -10.88796,-0.2833 -15.5,-1.25 -0.20469,-0.0248 -0.42018,-0.0673 -0.625,-0.0937 -13.11441,-1.69391 -26.41781,-6.7618 -34.09375,-15.96875 -13.22927,-28.18774 18.87646,-15.17291 22.65625,-34.6875 3.72014,-19.2066 -17.96449,-20.52472 -18.65625,-20.5625 l -98.1875,0 z"
       id="path1292"
       sodipodi:nodetypes="cccccccccccccccccccccccccccccccccccccccccc"
       style="fill-opacity:0.5;fill-rule:evenodd;stroke-width:2.8679966pt" />
    <path
       d="m 108.625,73.46875 0,99.15625 c -0.2722,3.12958 -2.53487,21.21757 -20.4375,17.75 -19.514587,-3.77979 -6.49976,-35.88552 -34.6875,-22.65625 -9.206951,7.67594 -14.27484,20.97934 -15.96875,34.09375 -0.02646,0.20482 -0.06894,0.42031 -0.09375,0.625 -0.966701,4.61204 -1.45656,9.88905 -1.25,15.5 0.559539,15.19944 5.6533,32.24863 16.5625,41.34375 28.187729,13.22926 15.17291,-18.90771 34.6875,-22.6875 19.51458,-3.7798 20.59375,18.90625 20.59375,18.90625 l 0.59375,97.71875 c 0,0 98.09376,-0.78126 98.09375,-0.78125 0,0 22.68603,-1.07918 18.90625,-20.59375 -3.77979,-19.51459 -35.88551,-6.49978 -22.65625,-34.6875 9.09512,-10.9092 26.11306,-16.00297 41.3125,-16.5625 5.61095,-0.20656 10.88796,0.28329 15.5,1.25 0.20469,0.0248 0.42018,0.0673 0.625,0.0937 13.11441,1.69391 26.44906,6.76179 34.125,15.96875 13.22927,28.18774 -18.90771,15.1729 -22.6875,34.6875 -3.77979,19.51458 18.90625,20.59374 18.90625,20.59375 l 97.1875,0.0312 c 0,0 -0.62501,-98.25001 -0.625,-98.25 0,0 -1.07918,-22.68605 -20.59375,-18.90625 -19.51459,3.77979 -6.49978,35.91675 -34.6875,22.6875 -10.9092,-9.09512 -16.00297,-26.14431 -16.5625,-41.34375 -0.20656,-5.61095 0.28329,-10.88795 1.25,-15.5 0.0248,-0.20469 0.0673,-0.42019 0.0937,-0.625 1.69391,-13.11441 6.76179,-26.41782 15.96875,-34.09375 5.2852,-2.48049 9.12583,-3.37911 12,-3.15625 12.45474,0.96571 6.83189,22.74142 22.6875,25.8125 18.2079,3.5267 20.26129,-15.33972 20.46875,-17.96875 l 0,-98.40625 c 0,0 -97.34375,0.71875 -97.34375,0.71875 0,0 -22.68605,1.07917 -18.90625,20.59375 3.77979,19.51459 35.91676,6.49977 22.6875,34.6875 -9.09512,10.9092 -26.14431,16.00296 -41.34375,16.5625 -5.61095,0.20656 -10.88796,-0.2833 -15.5,-1.25 -0.20469,-0.0248 -0.42018,-0.0673 -0.625,-0.0937 -13.11441,-1.69391 -26.41781,-6.7618 -34.09375,-15.96875 -13.22927,-28.18774 18.87646,-15.17291 22.65625,-34.6875 3.72014,-19.2066 -17.96449,-20.52472 -18.65625,-20.5625 l -98.1875,0 z"
       id="path1290"
       sodipodi:nodetypes="cccccccccccccccccccccccccccccccccccccccccc"
       style="fill:url(#radialGradient1096);fill-opacity:1;fill-rule:evenodd;stroke:#000000;stroke-width:12.5;stroke-linejoin:round;stroke-dasharray:none" />
  </g>
</svg>
